# Blender v2.80 (sub 74) OBJ File: 'Rock03.blend'
# www.blender.org
o polySurface8_Mesh.003
v -0.025935 -0.351444 -1.472514
v 0.904834 -0.351444 -1.359117
v 1.517674 -0.351444 -0.125537
v 0.647259 -0.351444 1.229341
v -0.723275 -0.351444 1.472513
v -1.517673 -0.351444 -0.349345
v -0.010020 0.750752 -1.307327
v -1.344841 0.608584 -0.316935
v -0.635978 0.877293 1.299563
v 0.573828 0.746594 1.092005
v 1.331729 0.335348 -0.100714
v 0.810567 0.667919 -1.201332
v 0.118671 -0.877293 -0.089375
vt 0.012946 0.425365
vt 0.246482 0.957923
vt 0.452705 0.099079
vt 0.645054 0.889543
vt 0.723048 0.133999
vt 0.894746 0.496600
vt -0.043994 0.364276
vt 0.012946 0.680559
vt 0.447462 0.364276
vt 0.452705 0.727396
vt 0.364276 0.414688
vt 0.364276 1.014902
vt 0.680559 0.425365
vt 0.769085 0.957923
vt 0.669246 0.364276
vt 0.645054 0.726026
vt 0.217722 0.364276
vt 0.246482 0.769085
vt 0.364276 0.488422
vt 0.590541 0.496600
vt 0.364276 0.934788
vt 0.726026 0.889543
vt 0.364276 0.082017
vt 0.700107 0.133999
vt 0.754105 0.364276
vt 0.723048 0.700107
vt 0.447462 0.044658
vt 0.754105 0.082017
vt 0.495102 0.500335
vt 0.956006 0.488422
vt 0.669246 0.934788
vt 0.217722 1.014902
vt -0.043994 0.414688
vn -0.0310 0.9952 -0.0926
vn -0.0528 0.9772 -0.2057
vn -0.0583 0.9882 0.1414
vn 0.2129 0.9742 -0.0752
vn 0.2238 0.9737 0.0432
vn 0.4114 0.9098 0.0547
vn -0.9107 0.3462 -0.2254
vn -0.9897 0.0229 -0.1415
vn -0.3357 0.2679 -0.9031
vn -0.0914 -0.0031 -0.9958
vn -0.5190 0.2246 0.8248
vn -0.2706 0.1279 0.9541
vn 0.4564 0.2172 0.8628
vn 0.4621 0.1213 0.8785
vn 0.9305 0.3653 0.0269
vn 0.9930 0.1177 -0.0100
vn 0.6767 0.2147 -0.7042
vn 0.5025 0.1479 -0.8518
vn 0.0179 -0.9665 -0.2559
vn 0.0725 -0.9553 -0.2865
vn 0.0414 -0.9988 -0.0250
vn 0.2577 -0.9661 0.0156
vn 0.2100 -0.9589 0.1909
vn -0.0713 -0.9746 0.2123
vn -0.1566 -0.9869 -0.0386
s 1
f 8/1/1 9/2/2 7/3/3
f 9/2/2 10/4/4 7/3/3
f 7/3/3 10/4/4 12/5/5
f 10/4/4 11/6/6 12/5/5
f 6/7/7 8/8/8 1/9/9
f 1/9/9 8/8/8 7/10/10
f 6/11/7 5/12/11 8/13/8
f 8/13/8 5/12/11 9/14/12
f 4/15/13 10/16/14 5/17/11
f 5/17/11 10/16/14 9/18/12
f 3/19/15 11/20/16 4/21/13
f 4/21/13 11/20/16 10/22/14
f 3/19/15 2/23/17 11/20/16
f 11/20/16 2/23/17 12/24/18
f 2/25/17 1/9/9 12/26/18
f 12/26/18 1/9/9 7/10/10
f 1/27/19 2/28/20 13/29/21
f 2/28/20 3/30/22 13/29/21
f 3/30/22 4/31/23 13/29/21
f 4/31/23 5/32/24 13/29/21
f 5/32/24 6/33/25 13/29/21
f 6/33/25 1/27/19 13/29/21
