# Blender v2.80 (sub 74) OBJ File: 'CityWallArchwayNear.blend'
# www.blender.org
mtllib CityWallArchwayNear.mtl
o Cube
v -5.000000 -7.000000 -3.000000
v -5.000000 -7.000000 3.000000
v -3.995000 -7.000000 -3.000000
v -3.995000 -7.000000 3.000000
v -3.995000 3.135000 -3.000000
v -3.995000 3.135000 3.000000
v -1.997500 3.767500 -3.000000
v -1.997500 3.767500 3.000000
v -0.998750 3.933750 -3.000000
v -0.998750 3.933750 3.000000
v -5.000000 6.000000 -3.000000
v -5.000000 6.000000 2.000000
v -5.000000 7.000000 3.000000
v -2.996250 7.000000 3.000000
v -0.998750 7.000000 3.000000
v -2.996250 7.000000 2.000000
v -0.998750 7.000000 2.000000
v -5.000000 7.000000 2.000000
v -0.998750 8.000000 3.000000
v -2.996250 8.000000 3.000000
v -2.996250 8.000000 2.000000
v -0.998750 8.000000 2.000000
v 5.000000 -7.000000 -3.000000
v 5.000000 -7.000000 3.000000
v 3.995000 -7.000000 -3.000000
v 3.995000 -7.000000 3.000000
v 3.995000 3.135000 -3.000000
v 3.995000 3.135000 3.000000
v 1.997500 3.767500 -3.000000
v 1.997500 3.767500 3.000000
v 0.998750 3.933750 -3.000000
v 0.998750 3.933750 3.000000
v 0.000000 4.000000 -3.000000
v 0.000000 4.000000 3.000000
v 5.000000 6.000000 -3.000000
v 5.000000 6.000000 2.000000
v 5.000000 7.000000 3.000000
v 2.996250 7.000000 3.000000
v 0.998750 7.000000 3.000000
v 2.996250 7.000000 2.000000
v 0.998750 7.000000 2.000000
v 5.000000 7.000000 2.000000
v 0.998750 8.000000 3.000000
v 2.996250 8.000000 3.000000
v 2.996250 8.000000 2.000000
v 0.998750 8.000000 2.000000
vt 0.433417 0.762893
vt 0.500000 0.762893
vt 0.500000 0.362893
vt 0.433417 0.362893
vt 0.566583 0.362893
vt 0.699750 0.362893
vt 0.699750 0.429560
vt 0.566583 0.429560
vt 0.362893 -0.322192
vt 0.762893 -0.322192
vt 0.762893 0.353475
vt 0.362893 0.353475
vt 0.366833 0.762893
vt 0.366833 0.362893
vt 0.699750 0.611142
vt 0.833333 0.611142
vt 0.833333 0.544475
vt 0.166667 0.544475
vt 0.166667 0.611142
vt 0.300250 0.611142
vt 0.300250 0.677808
vt 0.433417 0.677808
vt 0.433417 0.611142
vt 0.566583 0.611142
vt 0.566583 0.677808
vt 0.699750 0.677808
vt 0.633167 0.362893
vt 0.633167 0.762893
vt 0.766333 0.762893
vt 0.766333 0.362893
vt 0.233667 0.362893
vt 0.233667 0.762893
vt 0.362893 0.611142
vt 0.429560 0.611142
vt 0.429560 0.677808
vt 0.362893 0.677808
vt 0.429560 0.611142
vt 0.362893 0.611142
vt 0.362893 0.677808
vt 0.429560 0.677808
vt 0.300250 0.429560
vt 0.300250 0.362893
vt 0.433417 0.362893
vt 0.433417 0.429560
vt 0.566583 0.762893
vt 0.566583 0.362893
vt 0.166667 0.762893
vt 0.166667 0.429560
vt 0.833333 0.429560
vt 0.833333 0.762893
vt 0.433417 0.611142
vt 0.433417 0.677808
vt 0.300250 0.677808
vt 0.300250 0.611142
vt 0.166667 0.611142
vt 0.166667 -0.322192
vt 0.233667 -0.322192
vt 0.233667 0.353475
vt 0.366833 0.395641
vt 0.433417 0.406725
vt 0.500000 0.411141
vt 0.566583 0.406725
vt 0.633167 0.395641
vt 0.766333 0.353475
vt 0.766333 -0.322192
vt 0.833333 -0.322192
vt 0.833333 0.611142
vt 0.699750 0.611142
vt 0.699750 0.677808
vt 0.566583 0.677808
vt 0.566583 0.611142
vt 0.362893 -0.322192
vt 0.362893 0.353475
vt 0.762893 0.353475
vt 0.762893 -0.322192
vt 0.833333 0.544475
vt 0.833333 -0.322192
vt 0.766333 -0.322192
vt 0.766333 0.353475
vt 0.633167 0.395641
vt 0.566583 0.406725
vt 0.500000 0.411141
vt 0.433417 0.406725
vt 0.366833 0.395641
vt 0.233667 0.353475
vt 0.233667 -0.322192
vt 0.166667 -0.322192
vt 0.166667 0.544475
vt 0.300250 0.429560
vt 0.166667 0.429560
vt 0.166667 0.362893
vt 0.300250 0.362893
vt 0.433417 0.362893
vt 0.566583 0.362893
vt 0.566583 0.429560
vt 0.433417 0.429560
vt 0.362893 0.611142
vt 0.362893 0.677808
vt 0.429560 0.677808
vt 0.429560 0.611142
vt 0.699750 0.429560
vt 0.699750 0.362893
vt 0.833333 0.362893
vt 0.833333 0.429560
vt 0.429560 0.611142
vt 0.429560 0.677808
vt 0.362893 0.677808
vt 0.362893 0.611142
vn 0.0662 -0.9978 0.0000
vn 0.0000 1.0000 0.0000
vn 1.0000 0.0000 0.0000
vn 0.1642 -0.9864 0.0000
vn -0.0000 -0.0000 -1.0000
vn -0.3019 -0.9533 0.0000
vn 0.3019 -0.9533 0.0000
vn -1.0000 0.0000 0.0000
vn -0.0662 -0.9978 0.0000
vn 0.0000 0.0000 1.0000
vn -0.1642 -0.9864 0.0000
usemtl Material
s off
f 9/1/1 33/2/1 34/3/1 10/4/1
f 43/5/2 44/6/2 45/7/2 46/8/2
f 4/9/3 3/10/3 5/11/3 6/12/3
f 7/13/4 9/1/4 10/4/4 8/14/4
f 40/15/5 42/16/5 36/17/5 12/18/5 18/19/5 16/20/5 21/21/5 22/22/5 17/23/5 41/24/5 46/25/5 45/26/5
f 30/27/6 29/28/6 27/29/6 28/30/6
f 8/14/7 6/31/7 5/32/7 7/13/7
f 15/33/3 17/34/3 22/35/3 19/36/3
f 16/37/8 14/38/8 20/39/8 21/40/8
f 21/41/2 20/42/2 19/43/2 22/44/2
f 31/45/9 32/46/9 34/3/9 33/2/9
f 11/47/2 12/48/2 36/49/2 35/50/2
f 15/51/10 19/52/10 20/53/10 14/54/10 13/55/10 2/56/10 4/57/10 6/58/10 8/59/10 10/60/10 34/61/10 32/62/10 30/63/10 28/64/10 26/65/10 24/66/10 37/67/10 38/68/10 44/69/10 43/70/10 39/71/10
f 26/72/8 28/73/8 27/74/8 25/75/8
f 35/76/5 23/77/5 25/78/5 27/79/5 29/80/5 31/81/5 33/82/5 9/83/5 7/84/5 5/85/5 3/86/5 1/87/5 11/88/5
f 29/28/11 30/27/11 32/46/11 31/45/11
f 16/89/2 18/90/2 13/91/2 14/92/2
f 15/93/2 39/94/2 41/95/2 17/96/2
f 39/97/8 43/98/8 46/99/8 41/100/8
f 40/101/2 38/102/2 37/103/2 42/104/2
f 40/105/3 45/106/3 44/107/3 38/108/3
