# Blender v2.80 (sub 74) OBJ File: 'CityWallArchwayFar.blend'
# www.blender.org
mtllib CityWallArchwayFar.mtl
o Cube
v -5.000000 -7.000000 -3.000000
v -5.000000 -7.000000 3.000000
v -3.995000 -7.000000 -3.000000
v -3.995000 -7.000000 3.000000
v -3.995000 3.135000 -3.000000
v -3.995000 3.135000 3.000000
v -5.000000 6.000000 -3.000000
v -5.000000 6.000000 2.000000
v -5.000000 7.000000 3.000000
v -2.996250 7.000000 3.000000
v -0.998750 7.000000 3.000000
v -2.996250 7.000000 2.000000
v -0.998750 7.000000 2.000000
v -5.000000 7.000000 2.000000
v -0.998750 8.000000 3.000000
v -2.996250 8.000000 3.000000
v -2.996250 8.000000 2.000000
v -0.998750 8.000000 2.000000
v 5.000000 -7.000000 -3.000000
v 5.000000 -7.000000 3.000000
v 3.995000 -7.000000 -3.000000
v 3.995000 -7.000000 3.000000
v 3.995000 3.135000 -3.000000
v 3.995000 3.135000 3.000000
v 5.000000 6.000000 -3.000000
v 5.000000 6.000000 2.000000
v 5.000000 7.000000 3.000000
v 2.996250 7.000000 3.000000
v 0.998750 7.000000 3.000000
v 2.996250 7.000000 2.000000
v 0.998750 7.000000 2.000000
v 5.000000 7.000000 2.000000
v 0.998750 8.000000 3.000000
v 2.996250 8.000000 3.000000
v 2.996250 8.000000 2.000000
v 0.998750 8.000000 2.000000
vt 0.699750 0.362893
vt 0.566583 0.429560
vt 0.566583 0.362893
vt 0.762893 -0.322192
vt 0.362893 0.353475
vt 0.362893 -0.322192
vt 0.833333 0.544475
vt 0.433417 0.611142
vt 0.566583 0.611142
vt 0.429560 0.611142
vt 0.362893 0.677808
vt 0.362893 0.611142
vt 0.362893 0.611142
vt 0.429560 0.677808
vt 0.429560 0.611142
vt 0.300250 0.362893
vt 0.433417 0.429560
vt 0.300250 0.429560
vt 0.362893 0.353475
vt 0.762893 0.353475
vt 0.762893 0.353475
vt 0.166667 0.429560
vt 0.833333 0.762893
vt 0.166667 0.762893
vt 0.762893 -0.322192
vt 0.362893 -0.322192
vt 0.166667 0.429560
vt 0.300250 0.362893
vt 0.300250 0.429560
vt 0.566583 0.362893
vt 0.433417 0.429560
vt 0.433417 0.362893
vt 0.362893 0.677808
vt 0.429560 0.611142
vt 0.362893 0.611142
vt 0.699750 0.362893
vt 0.833333 0.429560
vt 0.699750 0.429560
vt 0.429560 0.677808
vt 0.362893 0.611142
vt 0.429560 0.611142
vt 0.000000 0.000000
vt 0.833333 0.611142
vt 0.833333 0.362893
vt 0.166667 0.362893
vt 0.166667 0.611142
vt 0.166667 0.544475
vt 0.699750 0.429560
vt 0.699750 0.611142
vt 0.300250 0.611142
vt 0.300250 0.677808
vt 0.433417 0.677808
vt 0.566583 0.677808
vt 0.699750 0.677808
vt 0.429560 0.677808
vt 0.362893 0.677808
vt 0.433417 0.362893
vt 0.833333 0.429560
vt 0.566583 0.429560
vt 0.429560 0.677808
vt 0.362893 0.677808
vt 0.000000 0.000000
vt 0.000000 0.000000
vt 0.000000 0.000000
vt 0.000000 0.000000
vt 0.000000 0.000000
vt 0.000000 0.000000
vn 0.0000 1.0000 0.0000
vn 1.0000 0.0000 0.0000
vn 0.0000 -0.0000 -1.0000
vn -1.0000 0.0000 0.0000
vn 0.0000 -1.0000 0.0000
vn 0.0000 0.0000 1.0000
usemtl Material
s off
f 34/1/1 36/2/1 33/3/1
f 3/4/2 6/5/2 4/6/2
f 26/7/3 13/8/3 31/9/3
f 13/10/2 15/11/2 11/12/2
f 10/13/4 17/14/4 12/15/4
f 16/16/1 18/17/1 17/18/1
f 24/19/5 5/20/5 23/21/5
f 8/22/1 25/23/1 7/24/1
f 24/19/4 21/25/4 22/26/4
f 14/27/1 10/28/1 12/29/1
f 29/30/1 13/31/1 11/32/1
f 33/33/4 31/34/4 29/35/4
f 28/36/1 32/37/1 30/38/1
f 35/39/2 28/40/2 30/41/2
f 24/19/6 27/42/6 28/40/6
f 26/7/2 32/43/2 27/44/2
f 23/21/3 5/20/3 7/24/3
f 9/45/4 14/46/4 8/47/4
f 34/1/1 35/48/1 36/2/1
f 3/4/2 5/20/2 6/5/2
f 30/49/3 32/43/3 26/7/3
f 26/7/3 8/47/3 13/8/3
f 8/47/3 14/46/3 12/50/3
f 12/50/3 17/51/3 18/52/3
f 8/47/3 12/50/3 13/8/3
f 36/53/3 35/54/3 30/49/3
f 12/50/3 18/52/3 13/8/3
f 31/9/3 36/53/3 30/49/3
f 31/9/3 30/49/3 26/7/3
f 13/10/2 18/55/2 15/11/2
f 10/13/4 16/56/4 17/14/4
f 16/16/1 15/57/1 18/17/1
f 24/19/5 6/5/5 5/20/5
f 8/22/1 26/58/1 25/23/1
f 24/19/4 23/21/4 21/25/4
f 14/27/1 9/45/1 10/28/1
f 29/30/1 31/59/1 13/31/1
f 33/33/4 36/60/4 31/34/4
f 28/36/1 27/44/1 32/37/1
f 35/39/2 34/61/2 28/40/2
f 9/62/6 2/63/6 6/5/6
f 2/63/6 4/6/6 6/5/6
f 15/57/6 16/56/6 10/28/6
f 10/28/6 9/62/6 6/5/6
f 24/19/6 22/26/6 20/64/6
f 10/28/6 6/5/6 11/12/6
f 6/5/6 24/19/6 11/12/6
f 11/12/6 15/57/6 10/28/6
f 34/61/6 33/3/6 29/30/6
f 28/40/6 34/61/6 29/30/6
f 29/30/6 11/12/6 24/19/6
f 24/19/6 20/64/6 27/42/6
f 28/40/6 29/30/6 24/19/6
f 27/44/2 20/64/2 26/7/2
f 20/64/2 19/65/2 26/7/2
f 19/65/2 25/66/2 26/7/2
f 25/66/3 19/65/3 23/21/3
f 19/65/3 21/25/3 23/21/3
f 3/4/3 1/67/3 5/20/3
f 1/67/3 7/24/3 5/20/3
f 25/66/3 23/21/3 7/24/3
f 8/47/4 7/24/4 1/67/4
f 1/67/4 2/63/4 8/47/4
f 2/63/4 9/45/4 8/47/4
