# Blender v2.80 (sub 74) OBJ File: 'CityWallCornerL.blend'
# www.blender.org
o Cube
v 4.990381 6.000000 0.000286
v 4.990381 -7.000000 0.000286
v 4.990381 6.000000 -3.999714
v 4.990381 -7.000000 -3.999714
v 4.990381 6.000000 -2.999714
v 4.990381 7.000000 -3.999714
v 4.990381 7.000000 -2.999714
v 0.990381 -7.000000 4.000286
v 0.990381 -7.000000 0.000286
v 0.990381 6.000000 0.000286
v 0.990381 6.000000 4.000286
v -4.009619 6.000000 -2.999714
v -4.009619 6.000000 4.000286
v -5.009619 -7.000000 4.000286
v -5.009619 -7.000000 -3.999714
v -5.009619 6.000000 -3.999714
v -5.009619 6.000000 4.000286
v -4.009619 7.000000 -2.999714
v -4.009619 7.000000 4.000286
v -5.009619 7.000000 -3.999714
v -5.009619 7.000000 4.000286
vt 0.585165 0.618132
vt 0.370879 0.903846
vt 0.370879 0.260989
vt 0.370879 0.260989
vt 0.299451 0.903846
vt 0.299451 0.189560
vt 0.299451 0.618132
vt 0.370879 0.689560
vt 0.370879 0.618132
vt 0.903846 0.618132
vt 0.260989 0.689560
vt 0.260989 0.618132
vt 0.189560 0.618132
vt 0.903846 0.689560
vt 0.903846 0.618132
vt 0.870879 0.618132
vt 0.299451 0.689560
vt 0.299451 0.618132
vt 0.370879 0.618132
vt 0.870879 0.689560
vt 0.870879 0.618132
vt 0.189560 -0.310440
vt 0.903846 -0.310440
vt 0.870879 -0.310440
vt 0.299451 -0.310440
vt 0.870879 0.260989
vt 0.870879 0.618132
vt 0.903846 0.618132
vt 0.618132 -0.310440
vt 0.903846 -0.310440
vt 0.870879 -0.310440
vt 0.585165 -0.310440
vt 0.870879 0.189560
vt 0.870879 0.260989
vt 0.585165 0.903846
vt 0.370879 0.903846
vt 0.299451 0.689560
vt 0.903846 0.689560
vt 0.189560 0.689560
vt 0.870879 0.689560
vt 0.370879 0.689560
vt 0.618132 0.618132
vn 0.0000 1.0000 0.0000
vn 1.0000 0.0000 0.0000
vn 0.0000 0.0000 1.0000
vn 0.0000 0.0000 -1.0000
vn -1.0000 0.0000 0.0000
s off
f 10/1/1 5/2/1 12/3/1
f 18/4/1 6/5/1 20/6/1
f 3/7/2 7/8/2 5/9/2
f 5/10/3 18/11/3 12/12/3
f 16/13/4 6/14/4 3/15/4
f 17/16/5 20/17/5 16/18/5
f 12/19/2 19/20/2 13/21/2
f 15/22/4 3/15/4 4/23/4
f 14/24/5 16/18/5 15/25/5
f 10/1/1 13/26/1 11/27/1
f 1/28/3 9/29/3 2/30/3
f 10/1/2 8/31/2 9/32/2
f 18/4/1 21/33/1 19/34/1
f 10/1/1 1/35/1 5/2/1
f 18/4/1 7/36/1 6/5/1
f 3/7/2 6/37/2 7/8/2
f 5/10/3 7/38/3 18/11/3
f 16/13/4 20/39/4 6/14/4
f 17/16/5 21/40/5 20/17/5
f 12/19/2 18/41/2 19/20/2
f 15/22/4 16/13/4 3/15/4
f 14/24/5 17/16/5 16/18/5
f 10/1/1 12/3/1 13/26/1
f 1/28/3 10/42/3 9/29/3
f 10/1/2 11/27/2 8/31/2
f 18/4/1 20/6/1 21/33/1
