# Blender v2.80 (sub 74) OBJ File: 'CityWallArchway.blend'
# www.blender.org
o Cube
v -5.000000 5.000000 -3.000000
v -5.000000 -7.000000 -3.000000
v -5.000000 5.000000 3.000000
v -5.000000 -7.000000 3.000000
v -5.000000 2.000000 3.000000
v -5.000000 2.000000 -3.000000
v -3.995000 -7.000000 -3.000000
v -3.995000 5.000000 3.000000
v -3.995000 -7.000000 3.000000
v -3.995000 5.000000 -3.000000
v -3.995000 3.135000 -3.000000
v -3.995000 3.135000 3.000000
v -1.997500 5.000000 -3.000000
v -1.997500 3.767500 -3.000000
v -1.997500 5.000000 3.000000
v -1.997500 3.767500 3.000000
v -2.996250 5.000000 3.000000
v -2.996250 3.451250 3.000000
v -2.996250 5.000000 -3.000000
v -2.996250 3.451250 -3.000000
v -0.998750 5.000000 -3.000000
v -0.998750 3.933750 -3.000000
v -0.998750 5.000000 3.000000
v -0.998750 3.933750 3.000000
v -3.995000 6.000000 3.000000
v -5.000000 6.000000 3.000000
v -5.000000 6.000000 -3.000000
v -0.998750 6.000000 -3.000000
v -2.996250 6.000000 3.000000
v -3.995000 6.000000 -3.000000
v -2.996250 6.000000 -3.000000
v -1.997500 6.000000 -3.000000
v -0.998750 6.000000 3.000000
v -1.997500 6.000000 3.000000
v -5.000000 6.000000 2.000000
v -3.995000 6.000000 2.000000
v -1.997500 6.000000 2.000000
v -2.996250 6.000000 2.000000
v -0.998750 6.000000 2.000000
v -3.995000 7.000000 3.000000
v -5.000000 7.000000 3.000000
v -2.996250 7.000000 3.000000
v -3.995000 7.000000 2.000000
v -0.998750 7.000000 3.000000
v -1.997500 7.000000 3.000000
v -1.997500 7.000000 2.000000
v -2.996250 7.000000 2.000000
v -0.998750 7.000000 2.000000
v -5.000000 7.000000 2.000000
v -0.998750 8.000000 3.000000
v -1.997500 8.000000 3.000000
v -1.997500 8.000000 2.000000
v -2.996250 8.000000 3.000000
v -2.996250 8.000000 2.000000
v -0.998750 8.000000 2.000000
v 5.000000 5.000000 -3.000000
v 5.000000 -7.000000 -3.000000
v 5.000000 5.000000 3.000000
v 5.000000 -7.000000 3.000000
v 5.000000 2.000000 3.000000
v 5.000000 2.000000 -3.000000
v 3.995000 -7.000000 -3.000000
v 3.995000 5.000000 3.000000
v 3.995000 -7.000000 3.000000
v 3.995000 5.000000 -3.000000
v 3.995000 3.135000 -3.000000
v 3.995000 3.135000 3.000000
v 1.997500 5.000000 -3.000000
v 1.997500 3.767500 -3.000000
v 1.997500 5.000000 3.000000
v 1.997500 3.767500 3.000000
v 2.996250 5.000000 3.000000
v 2.996250 3.451250 3.000000
v 2.996250 5.000000 -3.000000
v 2.996250 3.451250 -3.000000
v 0.998750 5.000000 -3.000000
v 0.998750 3.933750 -3.000000
v 0.998750 5.000000 3.000000
v 0.998750 3.933750 3.000000
v 0.000000 5.000000 3.000000
v 0.000000 5.000000 -3.000000
v 0.000000 4.000000 -3.000000
v 0.000000 4.000000 3.000000
v 3.995000 6.000000 3.000000
v 5.000000 6.000000 3.000000
v 5.000000 6.000000 -3.000000
v 0.998750 6.000000 -3.000000
v 0.000000 6.000000 -3.000000
v 0.000000 6.000000 3.000000
v 2.996250 6.000000 3.000000
v 3.995000 6.000000 -3.000000
v 2.996250 6.000000 -3.000000
v 1.997500 6.000000 -3.000000
v 0.998750 6.000000 3.000000
v 1.997500 6.000000 3.000000
v 5.000000 6.000000 2.000000
v 0.000000 6.000000 2.000000
v 3.995000 6.000000 2.000000
v 1.997500 6.000000 2.000000
v 2.996250 6.000000 2.000000
v 0.998750 6.000000 2.000000
v 3.995000 7.000000 3.000000
v 5.000000 7.000000 3.000000
v 0.000000 7.000000 2.000000
v 0.000000 7.000000 3.000000
v 2.996250 7.000000 3.000000
v 3.995000 7.000000 2.000000
v 0.998750 7.000000 3.000000
v 1.997500 7.000000 3.000000
v 1.997500 7.000000 2.000000
v 2.996250 7.000000 2.000000
v 0.998750 7.000000 2.000000
v 5.000000 7.000000 2.000000
v 0.998750 8.000000 3.000000
v 1.997500 8.000000 3.000000
v 1.997500 8.000000 2.000000
v 2.996250 8.000000 3.000000
v 2.996250 8.000000 2.000000
v 0.998750 8.000000 2.000000
vt 0.233667 0.353475
vt 0.166667 0.477808
vt 0.166667 0.277808
vt 0.433417 0.477808
vt 0.500000 0.411141
vt 0.433417 0.406725
vt 0.500000 0.762893
vt 0.433417 0.362893
vt 0.433417 0.762893
vt 0.233667 -0.322192
vt 0.166667 -0.322192
vt 0.166667 0.277808
vt 0.233667 -0.322192
vt 0.166667 -0.322192
vt 0.166667 0.477808
vt 0.233667 0.353475
vt 0.300250 0.374558
vt 0.233667 0.477808
vt 0.433417 0.406725
vt 0.366833 0.477808
vt 0.366833 0.395641
vt 0.233667 0.362893
vt 0.300250 0.762893
vt 0.300250 0.362893
vt 0.762893 -0.322192
vt 0.362893 0.353475
vt 0.362893 -0.322192
vt 0.300250 0.477808
vt 0.366833 0.395641
vt 0.300250 0.374558
vt 0.233667 0.477808
vt 0.366833 0.762893
vt 0.366833 0.362893
vt 0.366833 0.544475
vt 0.366833 0.477808
vt 0.300250 0.477808
vt 0.500000 0.411141
vt 0.433417 0.477808
vt 0.166667 0.544475
vt 0.233667 0.544475
vt 0.300250 0.611142
vt 0.300250 0.544475
vt 0.366833 0.544475
vt 0.433417 0.611142
vt 0.433417 0.544475
vt 0.433417 0.544475
vt 0.366833 0.611142
vt 0.366833 0.544475
vt 0.366833 0.611142
vt 0.233667 0.544475
vt 0.166667 0.611142
vt 0.500000 0.611142
vt 0.500000 0.544475
vt 0.500000 0.544475
vt 0.500000 0.477808
vt 0.300250 0.544475
vt 0.433417 0.544475
vt 0.300250 0.544475
vt 0.500000 0.477808
vt 0.233667 0.544475
vt 0.433417 0.762893
vt 0.500000 0.429560
vt 0.500000 0.762893
vt 0.300250 0.762893
vt 0.366833 0.429560
vt 0.366833 0.762893
vt 0.433417 0.429560
vt 0.233667 0.762893
vt 0.300250 0.429560
vt 0.166667 0.762893
vt 0.233667 0.429560
vt 0.166667 0.429560
vt 0.233667 0.362893
vt 0.233667 0.429560
vt 0.300250 0.362893
vt 0.300250 0.429560
vt 0.300250 0.677808
vt 0.300250 0.611142
vt 0.433417 0.429560
vt 0.500000 0.362893
vt 0.500000 0.429560
vt 0.429560 0.611142
vt 0.362893 0.677808
vt 0.362893 0.611142
vt 0.166667 0.544475
vt 0.233667 0.611142
vt 0.233667 0.611142
vt 0.500000 0.544475
vt 0.433417 0.611142
vt 0.366833 0.429560
vt 0.433417 0.362893
vt 0.433417 0.429560
vt 0.300250 0.429560
vt 0.366833 0.362893
vt 0.366833 0.677808
vt 0.362893 0.611142
vt 0.429560 0.677808
vt 0.429560 0.611142
vt 0.366833 0.677808
vt 0.433417 0.677808
vt 0.766333 0.353475
vt 0.833333 0.477808
vt 0.766333 0.477808
vt 0.566583 0.477808
vt 0.566583 0.406725
vt 0.566583 0.362893
vt 0.566583 0.762893
vt 0.766333 -0.322192
vt 0.833333 0.277808
vt 0.766333 -0.322192
vt 0.833333 0.277808
vt 0.833333 -0.322192
vt 0.766333 0.353475
vt 0.833333 0.477808
vt 0.699750 0.374558
vt 0.699750 0.477808
vt 0.566583 0.406725
vt 0.633167 0.477808
vt 0.566583 0.477808
vt 0.699750 0.762893
vt 0.766333 0.362893
vt 0.699750 0.362893
vt 0.362893 0.353475
vt 0.762893 -0.322192
vt 0.362893 -0.322192
vt 0.633167 0.395641
vt 0.699750 0.477808
vt 0.699750 0.374558
vt 0.766333 0.477808
vt 0.633167 0.762893
vt 0.633167 0.362893
vt 0.633167 0.544475
vt 0.633167 0.477808
vt 0.633167 0.395641
vt 0.833333 0.544475
vt 0.699750 0.611142
vt 0.766333 0.544475
vt 0.699750 0.544475
vt 0.566583 0.611142
vt 0.633167 0.544475
vt 0.566583 0.544475
vt 0.633167 0.611142
vt 0.566583 0.544475
vt 0.633167 0.544475
vt 0.633167 0.611142
vt 0.833333 0.611142
vt 0.766333 0.544475
vt 0.699750 0.544475
vt 0.566583 0.544475
vt 0.699750 0.544475
vt 0.766333 0.544475
vt 0.566583 0.762893
vt 0.633167 0.429560
vt 0.699750 0.762893
vt 0.633167 0.762893
vt 0.566583 0.429560
vt 0.699750 0.429560
vt 0.766333 0.762893
vt 0.766333 0.429560
vt 0.833333 0.762893
vt 0.766333 0.362893
vt 0.833333 0.429560
vt 0.766333 0.429560
vt 0.699750 0.362893
vt 0.699750 0.429560
vt 0.699750 0.677808
vt 0.699750 0.611142
vt 0.566583 0.429560
vt 0.362893 0.677808
vt 0.429560 0.611142
vt 0.362893 0.611142
vt 0.766333 0.611142
vt 0.833333 0.544475
vt 0.766333 0.611142
vt 0.566583 0.611142
vt 0.566583 0.362893
vt 0.633167 0.429560
vt 0.566583 0.429560
vt 0.633167 0.362893
vt 0.699750 0.429560
vt 0.633167 0.677808
vt 0.429560 0.677808
vt 0.362893 0.611142
vt 0.429560 0.611142
vt 0.633167 0.677808
vt 0.566583 0.677808
vt 0.500000 0.362893
vt 0.233667 0.762893
vt 0.762893 0.353475
vt 0.166667 0.544475
vt 0.166667 0.429560
vt 0.166667 0.362893
vt 0.433417 0.362893
vt 0.429560 0.677808
vt 0.166667 0.611142
vt 0.500000 0.611142
vt 0.300250 0.362893
vt 0.300250 0.677808
vt 0.362893 0.677808
vt 0.433417 0.677808
vt 0.833333 -0.322192
vt 0.766333 0.762893
vt 0.762893 0.353475
vt 0.833333 0.544475
vt 0.833333 0.429560
vt 0.833333 0.362893
vt 0.566583 0.362893
vt 0.429560 0.677808
vt 0.833333 0.611142
vt 0.699750 0.362893
vt 0.699750 0.677808
vt 0.362893 0.677808
vt 0.566583 0.677808
vn 0.0000 0.0000 1.0000
vn 0.0000 0.0000 -1.0000
vn 0.0662 -0.9978 0.0000
vn 0.3019 -0.9533 0.0000
vn 1.0000 0.0000 0.0000
vn 0.1642 -0.9864 0.0000
vn 0.0000 1.0000 0.0000
vn -1.0000 0.0000 0.0000
vn -0.0662 -0.9978 0.0000
vn -0.3019 -0.9533 0.0000
vn -0.1642 -0.9864 0.0000
s off
f 12/1/1 3/2/1 5/3/1
f 21/4/2 82/5/2 22/6/2
f 82/7/3 24/8/3 22/9/3
f 9/10/1 5/3/1 4/11/1
f 6/12/2 7/13/2 2/14/2
f 1/15/2 11/16/2 6/12/2
f 18/17/1 8/18/1 12/1/1
f 24/19/1 15/20/1 16/21/1
f 12/22/4 20/23/4 18/24/4
f 7/25/5 12/26/5 9/27/5
f 19/28/2 14/29/2 20/30/2
f 10/31/2 20/30/2 11/16/2
f 18/24/4 14/32/4 16/33/4
f 19/28/2 32/34/2 13/35/2
f 16/21/1 17/36/1 18/17/1
f 83/37/1 23/38/1 24/19/1
f 22/9/6 16/33/6 14/32/6
f 13/35/2 22/6/2 14/29/2
f 8/18/1 26/39/1 3/2/1
f 36/40/2 47/41/2 38/42/2
f 37/43/2 48/44/2 39/45/2
f 33/46/1 45/47/1 34/48/1
f 38/42/2 46/49/2 37/43/2
f 25/50/1 41/51/1 26/39/1
f 39/45/2 104/52/2 97/53/2
f 21/4/2 88/54/2 81/55/2
f 15/20/1 29/56/1 17/36/1
f 13/35/2 28/57/2 21/4/2
f 17/36/1 25/50/1 8/18/1
f 23/38/1 34/48/1 15/20/1
f 10/31/2 31/58/2 19/28/2
f 80/59/1 33/46/1 23/38/1
f 1/15/2 30/60/2 10/31/2
f 28/61/7 97/62/7 88/63/7
f 31/64/7 37/65/7 32/66/7
f 32/66/7 39/67/7 28/61/7
f 30/68/7 38/69/7 31/64/7
f 27/70/7 36/71/7 30/68/7
f 49/72/7 40/73/7 43/74/7
f 43/74/7 42/75/7 47/76/7
f 45/47/1 53/77/1 42/78/1
f 48/79/7 105/80/7 104/81/7
f 48/82/5 50/83/5 44/84/5
f 34/48/1 42/78/1 29/56/1
f 35/85/2 43/86/2 36/40/2
f 29/56/1 40/87/1 25/50/1
f 89/88/1 44/89/1 33/46/1
f 52/90/7 50/91/7 55/92/7
f 54/93/7 51/94/7 52/90/7
f 47/41/2 52/95/2 46/49/2
f 42/96/8 54/97/8 47/98/8
f 44/89/1 51/99/1 45/47/1
f 46/49/2 55/100/2 48/44/2
f 67/101/1 58/102/1 63/103/1
f 82/5/2 76/104/2 77/105/2
f 79/106/9 82/7/9 77/107/9
f 64/108/1 60/109/1 67/101/1
f 62/110/2 61/111/2 57/112/2
f 66/113/2 56/114/2 61/111/2
f 73/115/1 63/103/1 72/116/1
f 79/117/1 70/118/1 78/119/1
f 75/120/10 67/121/10 73/122/10
f 67/123/8 62/124/8 64/125/8
f 69/126/2 74/127/2 75/128/2
f 75/128/2 65/129/2 66/113/2
f 69/130/10 73/122/10 71/131/10
f 93/132/2 74/127/2 68/133/2
f 71/134/1 72/116/1 70/118/1
f 83/37/1 78/119/1 80/59/1
f 71/131/11 77/107/11 69/130/11
f 77/105/2 68/133/2 69/126/2
f 85/135/1 63/103/1 58/102/1
f 111/136/2 98/137/2 100/138/2
f 112/139/2 99/140/2 101/141/2
f 109/142/1 94/143/1 95/144/1
f 110/145/2 100/138/2 99/140/2
f 103/146/1 84/147/1 85/135/1
f 104/52/2 101/141/2 97/53/2
f 88/54/2 76/104/2 81/55/2
f 90/148/1 70/118/1 72/116/1
f 87/149/2 68/133/2 76/104/2
f 84/147/1 72/116/1 63/103/1
f 95/144/1 78/119/1 70/118/1
f 92/150/2 65/129/2 74/127/2
f 94/143/1 80/59/1 78/119/1
f 91/151/2 56/114/2 65/129/2
f 97/62/7 87/152/7 88/63/7
f 99/153/7 92/154/7 93/155/7
f 101/156/7 93/155/7 87/152/7
f 100/157/7 91/158/7 92/154/7
f 98/159/7 86/160/7 91/158/7
f 102/161/7 113/162/7 107/163/7
f 106/164/7 107/163/7 111/165/7
f 117/166/1 109/142/1 106/167/1
f 105/80/7 112/168/7 104/81/7
f 114/169/8 112/170/8 108/171/8
f 106/167/1 95/144/1 90/148/1
f 107/172/2 96/173/2 98/137/2
f 102/174/1 90/148/1 84/147/1
f 108/175/1 89/88/1 94/143/1
f 114/176/7 116/177/7 119/178/7
f 115/179/7 118/180/7 116/177/7
f 116/181/2 111/136/2 110/145/2
f 118/182/5 106/183/5 111/184/5
f 115/185/1 108/175/1 109/142/1
f 119/186/2 110/145/2 112/139/2
f 12/1/1 8/18/1 3/2/1
f 21/4/2 81/55/2 82/5/2
f 82/7/3 83/187/3 24/8/3
f 9/10/1 12/1/1 5/3/1
f 6/12/2 11/16/2 7/13/2
f 1/15/2 10/31/2 11/16/2
f 18/17/1 17/36/1 8/18/1
f 24/19/1 23/38/1 15/20/1
f 12/22/4 11/188/4 20/23/4
f 7/25/5 11/189/5 12/26/5
f 19/28/2 13/35/2 14/29/2
f 10/31/2 19/28/2 20/30/2
f 18/24/4 20/23/4 14/32/4
f 19/28/2 31/58/2 32/34/2
f 16/21/1 15/20/1 17/36/1
f 83/37/1 80/59/1 23/38/1
f 22/9/6 24/8/6 16/33/6
f 13/35/2 21/4/2 22/6/2
f 8/18/1 25/50/1 26/39/1
f 36/40/2 43/86/2 47/41/2
f 37/43/2 46/49/2 48/44/2
f 33/46/1 44/89/1 45/47/1
f 38/42/2 47/41/2 46/49/2
f 25/50/1 40/87/1 41/51/1
f 39/45/2 48/44/2 104/52/2
f 21/4/2 28/57/2 88/54/2
f 15/20/1 34/48/1 29/56/1
f 13/35/2 32/34/2 28/57/2
f 17/36/1 29/56/1 25/50/1
f 23/38/1 33/46/1 34/48/1
f 10/31/2 30/60/2 31/58/2
f 80/59/1 89/88/1 33/46/1
f 1/15/2 27/190/2 30/60/2
f 28/61/7 39/67/7 97/62/7
f 31/64/7 38/69/7 37/65/7
f 32/66/7 37/65/7 39/67/7
f 30/68/7 36/71/7 38/69/7
f 27/70/7 35/191/7 36/71/7
f 49/72/7 41/192/7 40/73/7
f 43/74/7 40/73/7 42/75/7
f 45/47/1 51/99/1 53/77/1
f 48/79/7 44/193/7 105/80/7
f 48/82/5 55/194/5 50/83/5
f 34/48/1 45/47/1 42/78/1
f 35/85/2 49/195/2 43/86/2
f 29/56/1 42/78/1 40/87/1
f 89/88/1 105/196/1 44/89/1
f 52/90/7 51/94/7 50/91/7
f 54/93/7 53/197/7 51/94/7
f 47/41/2 54/198/2 52/95/2
f 42/96/8 53/199/8 54/97/8
f 44/89/1 50/200/1 51/99/1
f 46/49/2 52/95/2 55/100/2
f 67/101/1 60/109/1 58/102/1
f 82/5/2 81/55/2 76/104/2
f 79/106/9 83/187/9 82/7/9
f 64/108/1 59/201/1 60/109/1
f 62/110/2 66/113/2 61/111/2
f 66/113/2 65/129/2 56/114/2
f 73/115/1 67/101/1 63/103/1
f 79/117/1 71/134/1 70/118/1
f 75/120/10 66/202/10 67/121/10
f 67/123/8 66/203/8 62/124/8
f 69/126/2 68/133/2 74/127/2
f 75/128/2 74/127/2 65/129/2
f 69/130/10 75/120/10 73/122/10
f 93/132/2 92/150/2 74/127/2
f 71/134/1 73/115/1 72/116/1
f 83/37/1 79/117/1 78/119/1
f 71/131/11 79/106/11 77/107/11
f 77/105/2 76/104/2 68/133/2
f 85/135/1 84/147/1 63/103/1
f 111/136/2 107/172/2 98/137/2
f 112/139/2 110/145/2 99/140/2
f 109/142/1 108/175/1 94/143/1
f 110/145/2 111/136/2 100/138/2
f 103/146/1 102/174/1 84/147/1
f 104/52/2 112/139/2 101/141/2
f 88/54/2 87/149/2 76/104/2
f 90/148/1 95/144/1 70/118/1
f 87/149/2 93/132/2 68/133/2
f 84/147/1 90/148/1 72/116/1
f 95/144/1 94/143/1 78/119/1
f 92/150/2 91/151/2 65/129/2
f 94/143/1 89/88/1 80/59/1
f 91/151/2 86/204/2 56/114/2
f 97/62/7 101/156/7 87/152/7
f 99/153/7 100/157/7 92/154/7
f 101/156/7 99/153/7 93/155/7
f 100/157/7 98/159/7 91/158/7
f 98/159/7 96/205/7 86/160/7
f 102/161/7 103/206/7 113/162/7
f 106/164/7 102/161/7 107/163/7
f 117/166/1 115/185/1 109/142/1
f 105/80/7 108/207/7 112/168/7
f 114/169/8 119/208/8 112/170/8
f 106/167/1 109/142/1 95/144/1
f 107/172/2 113/209/2 96/173/2
f 102/174/1 106/167/1 90/148/1
f 108/175/1 105/196/1 89/88/1
f 114/176/7 115/179/7 116/177/7
f 115/179/7 117/210/7 118/180/7
f 116/181/2 118/211/2 111/136/2
f 118/182/5 117/212/5 106/183/5
f 115/185/1 114/213/1 108/175/1
f 119/186/2 116/181/2 110/145/2
