# Blender v2.80 (sub 74) OBJ File: 'CityWallTowerWindow.blend'
# www.blender.org
o Cube.001
v 0.800000 -1.850000 -0.000000
v -0.800000 -1.850000 -0.000000
v 0.000000 -2.650000 -0.000000
v 0.800000 0.000000 -0.000000
v 0.800000 1.850000 -0.000000
v -0.800000 0.000000 -0.000000
v -0.800000 1.850000 -0.000000
v 0.000000 2.650000 -0.000000
v 0.000000 0.000000 -0.000000
v 1.000000 -2.000000 0.100000
v 1.000000 -2.000000 -0.100000
v 0.800000 -1.850000 0.100000
v 0.800000 -1.850000 -0.000000
v -1.000000 -2.000000 0.100000
v 0.000000 -3.000000 -0.100000
v 0.000000 -3.000000 0.100000
v -1.000000 -2.000000 -0.100000
v -0.800000 -1.850000 0.100000
v 0.000000 -2.650000 0.100000
v -0.800000 -1.850000 -0.000000
v 0.000000 -2.650000 -0.000000
v 1.000000 2.000000 0.100000
v 1.000000 0.000000 0.100000
v 1.000000 0.000000 -0.100000
v 1.000000 2.000000 -0.100000
v 0.800000 0.000000 0.100000
v 0.800000 1.850000 0.100000
v 0.800000 0.000000 -0.000000
v 0.800000 1.850000 -0.000000
v -1.000000 2.000000 0.100000
v 0.000000 3.000000 -0.100000
v -1.000000 0.000000 0.100000
v -1.000000 0.000000 -0.100000
v 0.000000 3.000000 0.100000
v -1.000000 2.000000 -0.100000
v -0.800000 0.000000 0.100000
v -0.800000 1.850000 0.100000
v 0.000000 2.650000 0.100000
v -0.800000 0.000000 -0.000000
v -0.800000 1.850000 -0.000000
v 0.000000 2.650000 -0.000000
vt 0.985437 0.161110
vt 0.500000 0.500000
vt 0.500000 0.014563
vt 0.014563 0.161110
vt 0.014563 0.500000
vt 0.985437 0.838890
vt 0.985437 0.500000
vt 0.014563 0.838890
vt 0.500000 0.985437
vt 0.921955 0.176375
vt 0.847273 0.014563
vt 0.921955 0.014563
vt 0.921955 0.500000
vt 0.847273 0.176375
vt 0.758026 0.176375
vt 0.384614 0.071197
vt 0.384614 0.014563
vt 0.923636 0.441667
vt 0.960978 0.741019
vt 0.923637 0.741019
vt 0.758026 0.500000
vt 0.683344 0.200647
vt 0.960978 0.870469
vt 0.923637 0.870469
vt 0.770350 0.985437
vt 0.845032 0.823625
vt 0.845032 0.985437
vt 0.770350 0.823625
vt 0.845032 0.500000
vt 0.011202 0.176375
vt 0.999439 0.142314
vt 0.962098 0.441667
vt 0.962098 0.142314
vt 0.085885 0.200647
vt 0.011202 0.500000
vt 0.999439 0.012864
vt 0.962098 0.012864
vt 0.847273 0.985437
vt 0.921955 0.823625
vt 0.921956 0.985437
vt 0.847273 0.823625
vt 0.384614 0.928803
vt 0.758026 0.823625
vt 0.384614 0.985437
vt 0.960977 0.142314
vt 0.923636 0.142314
vt 0.683344 0.799353
vt 0.960977 0.012864
vt 0.923636 0.012864
vt 0.845031 0.176375
vt 0.770349 0.014563
vt 0.845031 0.014563
vt 0.770349 0.176375
vt 0.011202 0.823625
vt 0.999440 0.741019
vt 0.962099 0.741019
vt 0.085885 0.799353
vt 0.999440 0.870469
vt 0.962099 0.870469
vt 0.847273 0.500000
vt 0.960977 0.441667
vt 0.683344 0.500000
vt 0.770349 0.500000
vt 0.999440 0.441667
vt 0.085885 0.500000
vn 0.0000 0.0000 1.0000
vn 0.7071 -0.7071 0.0000
vn 1.0000 0.0000 0.0000
vn -1.0000 0.0000 0.0000
vn -0.7071 0.7071 0.0000
vn -0.7071 -0.7071 0.0000
vn 0.7071 0.7071 0.0000
s off
f 1/1/1 9/2/1 3/3/1
f 2/4/1 9/2/1 6/5/1
f 5/6/1 9/2/1 4/7/1
f 7/8/1 9/2/1 8/9/1
f 1/1/1 4/7/1 9/2/1
f 2/4/1 3/3/1 9/2/1
f 5/6/1 8/9/1 9/2/1
f 7/8/1 6/5/1 9/2/1
f 11/10/2 16/11/2 15/12/2
f 24/13/3 10/14/3 11/10/3
f 10/15/1 19/16/1 16/17/1
f 26/18/4 13/19/4 12/20/4
f 23/21/1 12/22/1 10/15/1
f 12/20/5 21/23/5 19/24/5
f 16/25/6 17/26/6 15/27/6
f 14/28/4 33/29/4 17/26/4
f 19/16/1 14/30/1 16/17/1
f 20/31/3 36/32/3 18/33/3
f 18/34/1 32/35/1 14/30/1
f 21/36/7 18/33/7 19/37/7
f 34/38/7 25/39/7 31/40/7
f 22/41/3 24/13/3 25/39/3
f 38/42/1 22/43/1 34/44/1
f 29/45/4 26/18/4 27/46/4
f 27/47/1 23/21/1 22/43/1
f 41/48/6 27/46/6 38/49/6
f 35/50/5 34/51/5 31/52/5
f 33/29/4 30/53/4 35/50/4
f 30/54/1 38/42/1 34/44/1
f 36/32/3 40/55/3 37/56/3
f 32/35/1 37/57/1 30/54/1
f 37/56/2 41/58/2 38/59/2
f 11/10/2 10/14/2 16/11/2
f 24/13/3 23/60/3 10/14/3
f 10/15/1 12/22/1 19/16/1
f 26/18/4 28/61/4 13/19/4
f 23/21/1 26/62/1 12/22/1
f 12/20/5 13/19/5 21/23/5
f 16/25/6 14/28/6 17/26/6
f 14/28/4 32/63/4 33/29/4
f 19/16/1 18/34/1 14/30/1
f 20/31/3 39/64/3 36/32/3
f 18/34/1 36/65/1 32/35/1
f 21/36/7 20/31/7 18/33/7
f 34/38/7 22/41/7 25/39/7
f 22/41/3 23/60/3 24/13/3
f 38/42/1 27/47/1 22/43/1
f 29/45/4 28/61/4 26/18/4
f 27/47/1 26/62/1 23/21/1
f 41/48/6 29/45/6 27/46/6
f 35/50/5 30/53/5 34/51/5
f 33/29/4 32/63/4 30/53/4
f 30/54/1 37/57/1 38/42/1
f 36/32/3 39/64/3 40/55/3
f 32/35/1 36/65/1 37/57/1
f 37/56/2 40/55/2 41/58/2
