# Blender v2.80 (sub 74) OBJ File: 'Grass.blend'
# www.blender.org
o Grass_Mesh_Asset_Mesh
v -0.554737 -0.135998 0.051018
v 0.623234 -0.135998 0.051018
v -0.554737 1.100715 -0.205472
v 0.623234 1.100715 -0.205472
v -0.518714 0.021677 -0.368944
v 0.401533 -0.213734 0.327721
v -0.141671 0.912906 -0.368944
v 0.778575 0.677495 0.327721
v -0.431373 -0.197669 0.398111
v 0.495846 -0.080458 -0.318926
v -0.871516 0.859517 0.295316
v 0.055703 0.976729 -0.421721
v -0.026884 -0.128229 0.592747
v 0.163158 -0.118612 -0.569754
v -0.273195 1.083330 0.562503
v -0.083154 1.092947 -0.599997
v -0.155531 0.684466 0.416473
v -0.308252 -0.100540 0.115889
v 0.483634 -0.191938 -0.047758
v 0.636354 0.593068 0.252826
v -0.042802 0.704094 -0.458002
v 0.234184 -0.080912 -0.265770
v -0.385429 -0.172309 0.253791
v -0.662415 0.612697 0.061559
v 0.623234 0.276240 -0.034478
v 0.623234 0.688478 -0.119975
v -0.554737 0.688478 -0.119975
v -0.554737 0.276240 -0.034478
v 0.527214 0.083342 0.327721
v 0.652894 0.380418 0.327721
v -0.267352 0.615830 -0.368944
v -0.393033 0.318753 -0.368944
v 0.202418 0.624333 -0.387456
v -0.724801 0.507122 0.329581
v 0.081054 0.285241 -0.579835
v -0.001050 0.689094 -0.589916
v -0.191091 0.679477 0.572584
v -0.108988 0.275624 0.582666
v 0.534540 0.069731 0.052437
v 0.585447 0.331400 0.152631
v -0.206438 0.422797 0.316278
v -0.257345 0.161129 0.216084
v 0.049526 0.442425 -0.393924
v -0.570086 0.351028 0.125637
v 0.349132 0.271937 -0.353191
v -0.578087 0.154727 0.363846
v -0.477757 0.089360 0.189714
v 0.141855 0.180757 -0.329847
vt 1.000000 0.666168
vt 0.000000 0.335787
vt 1.000000 0.335788
vt 1.000000 0.335788
vt -0.000000 0.666168
vt 0.000000 0.335787
vt 1.000000 0.666168
vt 0.000000 0.335787
vt 1.000000 0.335788
vt 1.000000 0.666168
vt 0.000000 0.335787
vt 1.000000 0.335788
vt 1.000000 0.666168
vt 0.000000 0.335787
vt 1.000000 0.335788
vt 1.000000 0.335788
vt -0.000000 0.666168
vt 1.000000 0.666168
vt -0.000000 1.000000
vt 1.000000 1.000000
vt 0.000000 -0.000000
vt -0.000000 1.000000
vt 1.000000 0.666168
vt 1.000000 1.000000
vt 1.000000 0.000000
vt 1.000000 1.000000
vt -0.000000 0.666168
vt 1.000000 1.000000
vt -0.000000 0.666168
vt 0.000000 -0.000000
vt -0.000000 1.000000
vt 1.000000 1.000000
vt 0.000000 -0.000000
vt 1.000000 1.000000
vt -0.000000 1.000000
vt 0.000000 -0.000000
vt 1.000000 0.000000
vt 0.000000 0.335787
vt -0.000000 0.666168
vt -0.000000 0.666168
vt 1.000000 0.000000
vt 0.000000 -0.000000
vt -0.000000 1.000000
vt -0.000000 1.000000
vt 1.000000 0.000000
vt 1.000000 0.000000
vt 1.000000 0.000000
vt 0.000000 -0.000000
vn 0.0000 0.2031 0.9792
vn -0.5487 0.2321 0.8032
vn 0.5576 0.3071 0.7712
vn 0.9666 0.2005 0.1597
vn 0.1453 -0.3783 0.9142
vn 0.5614 0.3783 0.7360
s off
f 26/1/1 28/2/1 25/3/1
f 29/4/2 31/5/2 32/6/2
f 33/7/3 46/8/3 45/9/3
f 36/10/4 38/11/4 35/12/4
f 40/13/5 42/14/5 39/15/5
f 47/16/6 43/17/6 44/18/6
f 3/19/1 26/1/1 4/20/1
f 1/21/1 25/3/1 28/2/1
f 7/22/2 30/23/2 8/24/2
f 32/6/2 6/25/2 29/4/2
f 12/26/3 34/27/3 33/7/3
f 16/28/4 37/29/4 36/10/4
f 13/30/4 35/12/4 38/11/4
f 17/31/5 40/13/5 20/32/5
f 18/33/5 39/15/5 42/14/5
f 24/34/6 43/17/6 21/35/6
f 9/36/3 45/9/3 46/8/3
f 23/37/6 48/38/6 47/16/6
f 26/1/1 27/39/1 28/2/1
f 29/4/2 30/23/2 31/5/2
f 33/7/3 34/27/3 46/8/3
f 36/10/4 37/29/4 38/11/4
f 40/13/5 41/40/5 42/14/5
f 47/16/6 48/38/6 43/17/6
f 3/19/1 27/39/1 26/1/1
f 1/21/1 2/41/1 25/3/1
f 7/22/2 31/5/2 30/23/2
f 32/6/2 5/42/2 6/25/2
f 12/26/3 11/43/3 34/27/3
f 16/28/4 15/44/4 37/29/4
f 13/30/4 14/45/4 35/12/4
f 17/31/5 41/40/5 40/13/5
f 18/33/5 19/46/5 39/15/5
f 24/34/6 44/18/6 43/17/6
f 9/36/3 10/47/3 45/9/3
f 23/37/6 22/48/6 48/38/6
